<svg class="icon" viewBox="0 0 1024 1024" xmlns="http://www.w3.org/2000/svg" width="128" height="128"><path d="M798.72 76.8H947.2v145.92h51.2V25.6H798.72zM947.2 801.28V947.2H798.72v51.2H998.4V801.28zM66.56 222.72V76.8h148.48V25.6H12.8v197.12zM215.04 947.2H66.56V801.28H12.8V998.4h202.24zM368.64 414.72c15.36 0 28.16-12.8 28.16-28.16V261.12c0-15.36-12.8-28.16-28.16-28.16s-28.16 12.8-28.16 28.16v125.44c2.56 15.36 12.8 28.16 28.16 28.16zm235.52 0c15.36 0 28.16-12.8 28.16-28.16V261.12c0-15.36-12.8-28.16-28.16-28.16S576 245.76 576 261.12v125.44c0 15.36 12.8 28.16 28.16 28.16zM806.4 473.6c-5.12-5.12-12.8-7.68-20.48-7.68s-15.36 2.56-20.48 7.68l-115.2 115.2-38.4-38.4c-5.12-5.12-12.8-7.68-20.48-7.68s-15.36 2.56-20.48 7.68c-10.24 10.24-10.24 28.16 0 38.4l58.88 58.88c5.12 5.12 12.8 7.68 20.48 7.68s15.36-2.56 20.48-7.68L806.4 512c5.12-5.12 7.68-12.8 7.68-20.48s-2.56-12.8-7.68-17.92zM312.32 504.32a38.4 38.4 0 1 0 76.8 0 38.4 38.4 0 1 0-76.8 0zM440.32 504.32a38.4 38.4 0 1 0 76.8 0 38.4 38.4 0 1 0-76.8 0zM350.72 588.8c-20.48 0-38.4 17.92-38.4 38.4s17.92 38.4 38.4 38.4 38.4-17.92 38.4-38.4-17.92-38.4-38.4-38.4zm128 0c-20.48 0-38.4 17.92-38.4 38.4s17.92 38.4 38.4 38.4 38.4-17.92 38.4-38.4-17.92-38.4-38.4-38.4zm243.2-207.36v53.76c0 15.36 12.8 28.16 28.16 28.16s28.16-12.8 28.16-28.16v-53.76c0-46.08-38.4-81.92-84.48-81.92h-51.2v53.76h51.2c12.8 0 28.16 12.8 28.16 28.16zm-317.44-81.92h161.28v53.76H404.48z" fill="#666"/><path d="M747.52 601.6c-15.36 0-28.16 12.8-28.16 28.16v76.8c0 15.36-12.8 30.72-30.72 30.72H281.6c-15.36 0-30.72-12.8-30.72-30.72V384c0-15.36 12.8-30.72 30.72-30.72h51.2v-53.76h-51.2c-46.08 0-84.48 38.4-84.48 84.48v322.56c0 46.08 38.4 84.48 84.48 84.48h409.6c46.08 0 84.48-38.4 84.48-84.48v-76.8c0-15.36-12.8-28.16-28.16-28.16z" fill="#666"/></svg>
