<svg class="icon" viewBox="0 0 1041 1024" xmlns="http://www.w3.org/2000/svg" width="128" height="128"><path d="M1037.87 969.77l1.832.005v53.609l-985.473-2.046-.004.5H.616l1.85-267.093V711.93h.297l.006-.991h53.61l-.007.991h116.76v3.697h.002l-.002.177v69.444h-.785l-.739 65.45 694.944 1.877 1.561-141.569h.312v-5.545h117.666l.009-1.232h53.609l-1.84 265.542zM920.975 778.78l-1.406 127.536h-2.474v.005l-1.766-.005h-49.37l.002-.133-694.958-1.877-.022 2.01h-53.61l1.367-121.068H55.864L54.6 967.73l929.661 1.93 1.323-190.88h-64.609zm-200.654 44.976H323.157V465.481H149.411v-73.318L544.473.616l349.396 391.547h.125v73.318H720.321v358.275zm75.283-431.593L540.309 106.07 256.917 392.163h139.559v358.275h250.526V465.48h-.073v-73.318h148.675z"/></svg>
