<svg class="icon" viewBox="0 0 1024 1024" xmlns="http://www.w3.org/2000/svg" width="128" height="128"><path d="M895.573 948.053c-23.466 0-42.666-19.2-42.666-42.666 0-133.974-108.8-242.774-242.774-242.774s-243.2 108.8-243.2 242.774c0 23.466-19.2 42.666-42.666 42.666s-42.667-19.2-42.667-42.666c0-180.907 147.2-328.107 328.107-328.107s328.106 147.2 328.106 328.107c.427 23.466-18.773 42.666-42.24 42.666z"/><path d="M609.707 662.613c-128 0-232.107-104.106-232.107-232.106S481.707 198.4 609.707 198.4s232.106 104.107 232.106 232.107c.427 127.573-103.68 232.106-232.106 232.106zm0-379.306c-81.067 0-146.774 66.133-146.774 146.773s66.134 146.773 146.774 146.773S756.48 511.147 756.48 430.08s-65.707-146.773-146.773-146.773zM96.427 844.8c-23.467 0-42.667-19.2-42.667-42.667 0-129.28 105.387-234.666 234.667-234.666 23.466 0 42.666 19.2 42.666 42.666s-19.2 42.667-42.666 42.667c-82.347 0-149.334 66.987-149.334 149.333 0 23.467-18.773 42.667-42.666 42.667z"/><path d="M288.853 567.04c-46.933 0-84.906-37.973-84.906-84.907s37.973-84.906 84.906-84.906c9.387 0 18.774 1.706 27.307 4.266 5.547 2.134 11.52 2.56 17.067 2.134 2.56-27.307 9.386-53.334 19.2-77.654-2.987-1.706-5.547-3.84-8.534-5.12-17.92-6.4-36.266-9.386-55.04-9.386-93.866 0-170.24 76.373-170.24 170.24s76.374 170.24 170.24 170.24c23.467 0 42.667-19.2 42.667-42.667s-19.2-42.24-42.667-42.24z"/></svg>
