<svg class="icon" viewBox="0 0 1024 1024" xmlns="http://www.w3.org/2000/svg" width="128" height="128"><path d="M391.22 518.65H104.74c-20.9 0-38-17.1-38-38V194.17c0-20.9 17.1-38 38-38h286.48c20.9 0 38 17.1 38 38v286.48c0 20.91-17.1 38-38 38zm-34.49-95.29V251.47c0-12.54-10.26-22.8-22.8-22.8H162.04c-12.54 0-22.8 10.26-22.8 22.8v171.89c0 12.54 10.26 22.8 22.8 22.8h171.89c12.54 0 22.8-10.26 22.8-22.8zm34.49 530.27H104.74c-20.9 0-38-17.1-38-38V629.15c0-20.9 17.1-38 38-38h286.48c20.9 0 38 17.1 38 38v286.48c0 20.9-17.1 38-38 38zm-34.49-95.29V686.45c0-12.54-10.26-22.8-22.8-22.8H162.04c-12.54 0-22.8 10.26-22.8 22.8v171.89c0 12.54 10.26 22.8 22.8 22.8h171.89c12.54 0 22.8-10.26 22.8-22.8zm469.47 95.29H539.72c-20.9 0-38-17.1-38-38V629.15c0-20.9 17.1-38 38-38H826.2c20.9 0 38 17.1 38 38v286.48c0 20.9-17.1 38-38 38zm-34.5-95.29V686.45c0-12.54-10.26-22.8-22.8-22.8H597.01c-12.54 0-22.8 10.26-22.8 22.8v171.89c0 12.54 10.26 22.8 22.8 22.8H768.9c12.54 0 22.8-10.26 22.8-22.8zm156.95-530.31L746.08 530.61c-14.78 14.78-38.96 14.78-53.74 0L489.76 328.03c-14.78-14.78-14.78-38.96 0-53.74L692.34 71.72c14.78-14.78 38.96-14.78 53.74 0L948.65 274.3c14.78 14.77 14.78 38.96 0 53.73zm-91.78-42.99L735.33 163.5c-8.87-8.87-23.38-8.87-32.24 0L581.54 285.04c-8.87 8.87-8.87 23.38 0 32.24l121.55 121.55c8.87 8.87 23.38 8.87 32.24 0l121.55-121.55c8.86-8.86 8.86-23.37-.01-32.24z"/></svg>
